<?xml version="1.0" encoding="utf-8"?><svg version="1.1" id="Layer_1" xmlns="http://www.w3.org/2000/svg" xmlns:xlink="http://www.w3.org/1999/xlink" x="0px" y="0px" viewBox="0 0 86.24 122.88" style="enable-background:new 0 0 86.24 122.88" xml:space="preserve"><g><path d="M82.34,122.88c-0.43-2.06-0.99-3.84-1.64-5.38c-2.81-6.62-9.81-9.64-16.68-12.6c-1.16-0.5-2.32-1-3.54-1.56 c-0.16,0.2-0.31,0.39-0.48,0.58c-0.94,1.16-2.05,2.18-3.28,3.08c-3.42,2.47-7.82,3.89-12.37,4.11c-4.53,0.22-9.21-0.74-13.21-3.03 c-1.99-1.14-3.81-2.61-5.36-4.42c-1.1,0.53-2.23,1.04-3.39,1.57c-6.6,3.01-14.05,6.41-16.77,12.07c-0.64,1.34-1.15,2.82-1.51,4.42 c-0.09,0.38-0.16,0.76-0.24,1.15H0c0.11-0.68,0.24-1.34,0.38-1.99c0.43-1.88,1.02-3.62,1.8-5.23c3.33-6.92,11.44-10.62,18.63-13.9 c1.6-0.73,3.15-1.44,4.54-2.13c0.95-1.25,1.73-2.59,2.33-4.03c0.52-1.23,0.9-2.53,1.16-3.9c-1.45-0.87-2.85-1.88-4.17-3.05 c-5.39-4.79-9.16-8.69-11.59-13.21c-2.47-4.58-3.5-9.67-3.37-16.74l0.39-20.47c0-0.22,0.04-0.43,0.11-0.62l-4.77-1.5 C4.76,21.01,13.49,11.99,24.31,7.65c3.94-1.58-2.66-10.21,6.41-6.89c12.11,4.43,38.98,10.46,45.34,18.07 c5.17,6.18,5.38,9.53,5.26,17.59c-0.04,2.62-0.44,4.91-1.65,5.77c-0.56,0.39-1.22,0.55-2,0.48v17.51c0,9.7-3.47,17.8-8.79,23.81 c-3,3.38-6.59,6.1-10.48,8.05c0.23,1.25,0.55,2.44,0.96,3.57c0.49,1.35,1.11,2.65,1.87,3.88c1.31,0.61,2.81,1.25,4.31,1.9 c7.57,3.26,15.27,6.58,18.69,14.63c0.79,1.85,1.44,3.99,1.94,6.48l0.08,0.38H82.34L82.34,122.88z M36.01,94.7 c-1.23-0.32-2.44-0.73-3.62-1.22c-0.29,1.25-0.68,2.45-1.17,3.6c-0.61,1.45-1.38,2.84-2.3,4.15c1.02,1.13,2.18,2.1,3.43,2.91 c3.38,2.19,7.46,3.21,11.47,3.12c3.99-0.1,7.89-1.32,10.93-3.62c0.81-0.61,1.56-1.3,2.23-2.07c0.2-0.24,0.39-0.5,0.57-0.75 c-0.71-1.24-1.31-2.54-1.8-3.92c-0.38-1.05-0.69-2.13-0.94-3.24c-3.9,1.4-7.85,2.09-11.72,2.03C40.69,95.65,38.32,95.33,36.01,94.7 L36.01,94.7z M31.98,89.03c1.27,0.67,2.56,1.21,3.88,1.64l0.05,0.02c2.44,0.75,4.99,1.12,7.55,1.12c4.11,0,8.27-0.93,12.13-2.69 c3.88-1.76,7.46-4.35,10.39-7.66c4.73-5.34,7.82-12.57,7.82-21.27V42.45h0.01c-0.04-1.22-0.22-2.34-0.55-3.36 c-0.32-0.98-0.78-1.84-1.4-2.57c-2.35-2.76-4.58-2.65-7.76-2.48c-0.29,0.01-0.57,0.03-0.98,0.05c-12.58,0.55-20.82,0.54-27.5-0.04 C29.47,33.5,24.63,32.49,18.99,31c-0.53,1.25-1.15,2.47-1.87,3.66c-0.92,1.52-1.99,2.97-3.21,4.35l-0.37,19.75 c-0.12,6.37,0.77,10.89,2.91,14.87c2.18,4.05,5.69,7.67,10.75,12.16c1.34,1.19,2.77,2.19,4.26,3.01 C31.66,88.85,31.83,88.93,31.98,89.03L31.98,89.03z M35.07,77.34c-0.89-0.58-1.14-1.76-0.56-2.65c0.58-0.89,1.76-1.14,2.65-0.56 c2.18,1.42,4.28,2.19,6.27,2.21c1.93,0.03,3.84-0.66,5.73-2.12c0.84-0.65,2.04-0.5,2.69,0.34c0.65,0.84,0.5,2.04-0.34,2.69 c-2.6,2.02-5.31,2.95-8.13,2.92C40.63,80.13,37.86,79.15,35.07,77.34L35.07,77.34z M27.93,53.33c2.29,0,4.14,1.85,4.14,4.14 c0,2.29-1.85,4.14-4.14,4.14c-2.29,0-4.14-1.85-4.14-4.14C23.79,55.18,25.64,53.33,27.93,53.33L27.93,53.33z M59.15,53.33 c2.29,0,4.14,1.85,4.14,4.14c0,2.29-1.85,4.14-4.14,4.14s-4.14-1.85-4.14-4.14C55.01,55.18,56.86,53.33,59.15,53.33L59.15,53.33z"/></g></svg>