<?xml version="1.0" encoding="utf-8"?><svg version="1.1" id="Layer_1" xmlns="http://www.w3.org/2000/svg" xmlns:xlink="http://www.w3.org/1999/xlink" x="0px" y="0px" viewBox="0 0 97.71 122.88" style="enable-background:new 0 0 97.71 122.88" xml:space="preserve"><style type="text/css">.st0{fill-rule:evenodd;clip-rule:evenodd;}</style><g><path class="st0" d="M41.09,2.42c5.55-3.76,11.87-2.93,17.09,1.05c1.37,1.05,2.54,2.34,3.47,3.9c0.79,1.33,2.18,4.05-0.41,4.47 c-1.02,0.16-2.8-1.22-4.18-1.67c-1.77-0.57-3.59-0.94-5.39-1.13C48.31,8.7,45,8.97,42.16,9.76c-1.54,0.43-3.04,0.95-4.48,1.61 c-0.67,0.31-2.04,1.22-2.41,0.05C34.4,8.71,39.1,3.77,41.09,2.42L41.09,2.42z M20.02,89.12c-0.21,0.21-0.55,0.22-0.77,0.01 c-0.21-0.21-0.22-0.55-0.01-0.77c0.57-0.59,1.22-1.12,1.94-1.59c0.72-0.47,1.52-0.88,2.4-1.22c0.28-0.11,0.59,0.03,0.7,0.31 c0.11,0.28-0.03,0.59-0.31,0.7c-0.81,0.31-1.55,0.69-2.2,1.12C21.12,88.11,20.54,88.59,20.02,89.12L20.02,89.12z M66.31,75.07 c7.57,2.93,13.65,5.18,19.37,8.77c3.64,2.28,5.52,4,7,6.77c3.13,5.87,3.47,11.14,3.94,17.51l1.09,14.76H81.87l-1.79-13.53 l-1.29,13.53H56.3c-1.93-2.41-5.45-6.45-8.45-8.1c1.37-0.64,2.86-1.98,4.4-3.63c1.2-0.92,2.22-1.87,2.98-2.85 c1.62-2.08,2.14-3.6,0.68-5.94c-0.25-0.4-0.85-0.28-1.31-0.48c-0.41-0.18-0.64-0.73-1.45-0.44c-0.41-0.14-0.16-0.79-0.27-1.02 c-0.11-0.23-0.23-0.35-0.38-0.36c-0.3,0.03-0.59,0.21-0.87,0.52c-0.31,0.35-0.61,0.86-0.89,1.51c-0.25,0.63-0.5,1.18-0.75,1.66 c-1.04,1.94-1.37,1.92-3.24,2.72c-1.33,0.57-2.82,1.17-3.74,1.25c-1.22,0.11-2.22-0.73-3.3-1.3l-1.97-1.04 c3.4-1.88,4.79-4.69,4.3-7.65c-0.48-2.87-1.32-2.58-2.36-4.35c-0.45-0.77-0.76-1.77-0.98-2.95c-0.33-0.96-0.76-1.84-1.31-2.61 c-4.78-6.64-15.57-6-20.63,0.18c-3.53,4.32-3.46,11.79-0.71,16.43c1.24,2.09,3.07,3.47,5.51,4.1c1.17,0.35,3.14,0.34,3.5,1.04 c-1.87,7.5,1.15,11.42,6.12,13.31h-9.35l-1.72-13.53l-1.34,13.53H0l1.09-14.76c0.47-6.37,0.81-11.64,3.94-17.51 c1.47-2.76,3.35-4.48,7-6.77c5.72-3.59,11.74-5.82,19.3-8.75C35.3,91.28,66.31,86.73,66.31,75.07L66.31,75.07z M44.78,67.82 c-0.16-0.44,0.08-0.93,0.52-1.08c0.44-0.16,0.93,0.08,1.08,0.52c0.12,0.34,0.45,0.61,0.89,0.79c0.4,0.17,0.88,0.26,1.37,0.27 c0.49,0.01,0.99-0.06,1.42-0.21c0.52-0.18,0.94-0.49,1.12-0.9c0.18-0.43,0.68-0.63,1.11-0.45c0.43,0.18,0.63,0.68,0.45,1.11 c-0.38,0.9-1.17,1.51-2.11,1.84c-0.63,0.22-1.34,0.32-2.03,0.31c-0.7-0.02-1.39-0.16-1.99-0.41 C45.75,69.25,45.07,68.65,44.78,67.82L44.78,67.82z M57.64,52.89l-0.98,1.21c-0.29,0.37-0.83,0.42-1.19,0.13 c-0.37-0.29-0.42-0.83-0.13-1.19l0.68-0.84c-0.37-0.27-0.46-0.78-0.21-1.16c0.26-0.39,0.79-0.49,1.18-0.23 c0.65,0.43,1.74,0.66,2.89,0.64c1.09-0.02,2.19-0.26,2.98-0.77c0.39-0.25,0.92-0.14,1.17,0.26c0.25,0.39,0.14,0.92-0.26,1.17 l-0.08,0.05l0.76,0.84c0.32,0.35,0.29,0.89-0.06,1.2c-0.35,0.32-0.89,0.29-1.2-0.06l-1.17-1.29c-0.4,0.11-0.81,0.18-1.22,0.23v1.19 c0,0.47-0.38,0.85-0.85,0.85c-0.47,0-0.85-0.38-0.85-0.85v-1.16C58.6,53.08,58.1,53,57.64,52.89L57.64,52.89z M35.34,52.91 l-0.96,1.18c-0.29,0.37-0.83,0.42-1.19,0.13c-0.37-0.29-0.42-0.83-0.13-1.19l0.65-0.81l-0.02-0.02c-0.39-0.26-0.49-0.79-0.23-1.18 c0.26-0.39,0.79-0.49,1.18-0.23c0.64,0.43,1.69,0.67,2.83,0.68c0.07-0.02,0.14-0.03,0.22-0.03c0.07,0,0.13,0.01,0.19,0.02 c1-0.04,2.02-0.28,2.82-0.75c0.41-0.24,0.93-0.1,1.16,0.31c0.24,0.41,0.1,0.93-0.31,1.16l-0.05,0.03l0.69,0.76 c0.32,0.35,0.29,0.89-0.06,1.2c-0.35,0.32-0.89,0.29-1.2-0.06l-1.13-1.24c-0.41,0.11-0.84,0.18-1.27,0.23v1.15 c0,0.47-0.38,0.85-0.85,0.85c-0.47,0-0.85-0.38-0.85-0.85v-1.12C36.3,53.12,35.8,53.03,35.34,52.91L35.34,52.91z M56.81,47.29 c-0.38,0.27-0.91,0.18-1.18-0.2c-0.27-0.38-0.18-0.91,0.2-1.18c1.6-1.13,3.23-1.71,4.9-1.72c1.67-0.01,3.34,0.56,5.01,1.71 c0.39,0.27,0.48,0.8,0.22,1.18c-0.27,0.39-0.8,0.48-1.18,0.22c-1.38-0.95-2.73-1.42-4.04-1.41C59.42,45.88,58.11,46.36,56.81,47.29 L56.81,47.29z M32.95,47.29c-0.38,0.27-0.91,0.18-1.18-0.2c-0.27-0.38-0.18-0.91,0.2-1.18c1.6-1.13,3.23-1.71,4.9-1.72 c1.67-0.01,3.34,0.56,5.01,1.71c0.39,0.27,0.48,0.8,0.22,1.18c-0.27,0.39-0.8,0.48-1.18,0.22c-1.38-0.95-2.73-1.42-4.04-1.41 C35.57,45.88,34.26,46.36,32.95,47.29L32.95,47.29z M22.23,43.09c0.24-0.15,0.52-0.22,0.78-0.2c-0.47-2.42-0.4-4.74-0.3-7.46 c0.26-7.11,2.06-12.79,7.66-17.72c8.45-7.44,25.19-8.09,34.5-1.68c1.38,0.95,2.66,2.08,3.82,3.4c3.78,4.33,7.14,13.85,7.07,19.72 c-0.02,1.36-0.24,2.74-0.7,4.14c-0.02,0.14-0.05,0.29-0.09,0.46c1.02,0.64,1.82,1.43,2.41,2.32c0.87,1.33,1.25,2.86,1.16,4.48 c-0.09,1.55-0.62,3.18-1.58,4.77c-1.12,1.85-2.83,3.66-5.11,5.21c-1.99,4.64-4.77,9.29-8.14,13.02c-2.83,3.14-6.08,5.63-9.63,6.94 c-3.63,1.34-7.55,1.44-11.6-0.26c-2.1-0.88-4.24-2.25-6.38-4.18c-1.96-1.77-3.74-3.96-5.35-6.51c-1.49-2.36-2.83-5.04-4.05-7.99 c-0.54-0.16-1.05-0.36-1.53-0.58c-0.69-0.32-1.32-0.7-1.89-1.14c-1.68-1.29-2.79-3.04-3.44-4.97c-0.72-2.15-0.85-4.53-0.56-6.72 c0.15-1.14,0.47-2.12,0.94-2.95C20.73,44.32,21.39,43.62,22.23,43.09L22.23,43.09z M23.63,45.24l-0.03,0.02 c-0.47,0.3-0.85,0.7-1.14,1.21c-0.31,0.54-0.52,1.21-0.63,2.01c-0.25,1.83-0.14,3.81,0.45,5.57c0.49,1.47,1.32,2.79,2.56,3.74 c0.44,0.33,0.91,0.62,1.42,0.86c0.52,0.24,1.08,0.44,1.69,0.59c0.42,0.1,0.74,0.4,0.89,0.77c1.22,3.05,2.58,5.79,4.08,8.17 c1.48,2.35,3.11,4.35,4.9,5.97c1.92,1.73,3.81,2.95,5.65,3.72c3.4,1.43,6.68,1.34,9.72,0.22c3.13-1.15,6.04-3.4,8.61-6.25 c3.24-3.59,5.93-8.13,7.82-12.65c0.11-0.26,0.29-0.46,0.51-0.6c2.11-1.39,3.65-2.98,4.63-4.59c0.74-1.22,1.14-2.44,1.21-3.58 c0.06-1.08-0.18-2.08-0.74-2.93c-0.3-0.45-0.68-0.87-1.16-1.23c-0.97,2.2-2.59,5.09-4.69,7.96V41.07 c-6.03-2.79-9.97-8.93-11.98-18.16C55,40.48,33.43,39.72,28.01,42.92v10.25c-1.03-1.44-1.95-2.92-2.78-4.41 C24.53,47.51,24.01,46.35,23.63,45.24L23.63,45.24z"/></g></svg>