<svg xmlns="http://www.w3.org/2000/svg" xmlns:xlink="http://www.w3.org/1999/xlink" id="Layer_1" x="0px" y="0px" viewBox="0 0 1203.3 155.7" style="enable-background:new 0 0 1203.3 155.7;" xml:space="preserve"><style type="text/css">	.st0{fill:#0060E3;}</style><g>	<g>		<path class="st0" d="M347.4,16.9c-5-5-11.9-7.9-19-7.9h-76c-7.1,0-13.9,2.8-19,7.9l-12.9,12.9c-5,5-7.9,11.9-7.9,19v58.1    c0,7.1,2.8,13.9,7.9,19l12.9,12.9c5,5,11.9,7.9,19,7.9l76,0c7.1,0,13.9-2.8,19-7.9l12.9-12.9c5-5,7.9-11.9,7.9-19V48.8    c0-7.1-2.8-13.9-7.9-19L347.4,16.9z M346.7,121.6c0,2-1.6,3.6-3.6,3.6l-105.4,0c-2,0-3.6-1.6-3.6-3.6V34.1c0-2,1.6-3.6,3.6-3.6    h105.4c2,0,3.6,1.6,3.6,3.6V121.6z"></path>		<path class="st0" d="M519.2,16.9c-5-5-11.9-7.9-19-7.9h-76c-7.1,0-13.9,2.8-19,7.9l-12.9,12.9c-5,5-7.9,11.9-7.9,19v94.3    c0,2,1.6,3.6,3.6,3.6h14.3c2,0,3.6-1.6,3.6-3.6v-109c0-2,1.6-3.6,3.6-3.6h105.4c2,0,3.6,1.6,3.6,3.6v109c0,2,1.6,3.6,3.6,3.6h14.3    c2,0,3.6-1.6,3.6-3.6V48.8c0-7.1-2.8-13.9-7.9-19L519.2,16.9z"></path>		<path class="st0" d="M1037.5,110.5h-13.1c-2,0-3.6,1.6-3.6,3.6v7.5c0,2-1.6,3.6-3.6,3.6l-26.7,0l-71.7,0c-2,0-3.6-1.6-3.6-3.6    v-14.4c0-2,1.6-3.6,3.6-3.6h83.7c7.1,0,13.9-2.8,19-7.9l12.9-12.9c5-5,7.9-11.9,7.9-19V48.8c0-7.1-2.8-13.9-7.9-19l-12.9-12.9    c-5-5-11.9-7.9-19-7.9h-69c-7.1,0-13.9,2.8-19,7.9l-12.9,12.9c-5,5-7.9,11.9-7.9,19v58.1c0,7.1,2.8,13.9,7.9,19l12.9,12.9    c5,5,11.9,7.9,19,7.9l51.5,0v0l4.1,0l5.3,0v0l8.1,0c7.1,0,13.9-2.8,18.9-7.9l12.9-12.9c3-3,5.2-6.6,6.5-10.6    C1041.6,112.9,1039.9,110.5,1037.5,110.5z M915.2,34.1c0-2,1.6-3.6,3.6-3.6h98.4c2,0,3.6,1.6,3.6,3.6v44.5c0,2-1.6,3.6-3.6,3.6    h-98.4c-2,0-3.6-1.6-3.6-3.6V34.1z"></path>		<path class="st0" d="M684,16.9c-5-5-11.9-7.9-19-7.9h-69c-7.1,0-13.9,2.8-19,7.9l-12.9,12.9c-5,5-7.9,11.9-7.9,19v58.1    c0,7.1,2.8,13.9,7.9,19l12.9,12.9c5,5,11.9,7.9,19,7.9l51.5,0v0l4.1,0l5.3,0v0l8.1,0c7.1,0,13.9-2.8,18.9-7.9l12.9-12.9    c3-3,5.2-6.6,6.5-10.6c0.8-2.3-0.9-4.8-3.4-4.8h-13.1c-2,0-3.6,1.6-3.6,3.6v7.5c0,2-1.6,3.6-3.6,3.6l-26.7,0l-71.7,0    c-2,0-3.6-1.6-3.6-3.6v-14.4c0-2,1.6-3.6,3.6-3.6h83.7c7.1,0,13.9-2.8,19-7.9L697,82.8c5-5,7.9-11.9,7.9-19V48.8    c0-7.1-2.8-13.9-7.9-19L684,16.9z M683.3,78.6c0,2-1.6,3.6-3.6,3.6h-98.4c-2,0-3.6-1.6-3.6-3.6V34.1c0-2,1.6-3.6,3.6-3.6h98.4    c2,0,3.6,1.6,3.6,3.6V78.6z"></path>		<path class="st0" d="M856.6,16.9c-5-5-11.9-7.9-19-7.9h-76c-7.1,0-13.9,2.8-19,7.9l-12.9,12.9c-5,5-7.9,11.9-7.9,19v94.3    c0,2,1.6,3.6,3.6,3.6h14.3c2,0,3.6-1.6,3.6-3.6v-109c0-2,1.6-3.6,3.6-3.6h105.4c2,0,3.6,1.6,3.6,3.6v109c0,2,1.6,3.6,3.6,3.6h14.3    c2,0,3.6-1.6,3.6-3.6V48.8c0-7.1-2.8-13.9-7.9-19L856.6,16.9z"></path>		<path class="st0" d="M1135.6,79.2c-0.7-0.7-0.7-1.9,0-2.6l63.8-63.7c1.4-1.4,0.4-3.8-1.5-3.8h-20.5c-1.4,0-2.7,0.5-3.7,1.5    l-52.2,52.1c-0.7,0.7-1.8,0.7-2.4,0l-52.2-52.1c-1-1-2.3-1.5-3.7-1.5h-20.5c-2,0-2.9,2.4-1.5,3.8l63.8,63.7c0.7,0.7,0.7,1.9,0,2.6    l-63.8,63.7c-1.4,1.4-0.4,3.8,1.5,3.8h20.5c1.4,0,2.7-0.5,3.7-1.5l52.2-52.1c0.7-0.7,1.8-0.7,2.4,0l52.2,52.1c1,1,2.3,1.5,3.7,1.5    h20.5c2,0,2.9-2.4,1.5-3.8L1135.6,79.2z"></path>	</g>	<path class="st0" d="M146.4,72.4l-13.7-13.7c-5.9-5.9-13.7-9.1-22-9.1H106V42c0-6.4-2.6-12.6-7.1-17.1L83.1,9.1   C77.3,3.3,69.4,0,61.1,0H10.5C4.7,0,0,4.7,0,10.5v18.6c0,3.7,1.5,7.3,4.1,9.9l38.2,38.2h-0.1l0.3,0.3c4.5,4.5,7,10.6,7,16.9v50.9   c0,1.8-1.5,3.3-3.3,3.3H10.5c-1.8,0-3.3-1.5-3.3-3.3V58.8c0-2-0.8-3.9-2.2-5.3l-2.4-2.4C1.6,50.2,0,50.8,0,52.2v93.1   c0,5.8,4.7,10.5,10.5,10.5h35.7c5.8,0,10.5-4.7,10.5-10.5V94.4c0-8.3-3.2-16.1-9.1-22L9.4,34.2c-1.5-1.5-2.3-3.5-2.3-5.6l0.1-18.1   c0-1.8,1.5-3.3,3.3-3.3h50.6c6.4,0,12.5,2.5,16.9,7L93.8,30c3.2,3.2,5,7.5,5,12.1v7.5H42.1c-1.3,0-2,1.6-1.1,2.6l2.4,2.4   c1.4,1.4,3.3,2.2,5.3,2.2h50l0,88.5c0,5.8,4.7,10.5,10.5,10.5H145c5.8,0,10.5-4.7,10.5-10.5V94.4C155.5,86.1,152.3,78.3,146.4,72.4   z M148.3,145.2c0,1.8-1.5,3.3-3.3,3.3h-35.7c-1.8,0-3.3-1.5-3.3-3.3l0-88.5h4.6c6.4,0,12.4,2.5,16.9,7l13.7,13.7   c4.5,4.5,7,10.5,7,16.9V145.2z"></path></g></svg>